<svg xmlns="http://www.w3.org/2000/svg" viewBox="0 0 200 200">
    <g>
         <path d="M100.518 88.153h-.03c-.021 0-.042 0-.063-.002-9.184-.569-18.009-4.886-26.23-12.831-4.371-4.271-7.729-8.823-9.984-13.534-2.312-4.829-3.41-9.938-3.456-16.08l-.017-2.224c-.053-7.035-.108-14.31-.108-21.466 0-.817.242-1.433.72-1.83.767-.639 1.762-.453 2.641-.291l.376.067a35.733 35.733 0 0 1 7.954 2.311c5.104 2.139 9.96 5.471 14.845 10.188 7.812 7.544 12.293 15.938 13.318 24.946 1.062-9.008 5.544-17.402 13.359-24.949 7.928-7.744 16.489-12.062 25.442-12.829a.969.969 0 0 1 .764.261c.207.19.323.459.322.74l-.016 2.977c-.014 2.807-.007 5.616.001 8.426.013 5.073.025 10.318-.09 15.473-.22 9.766-4.998 19.641-13.454 27.807-8.229 7.948-17.056 12.267-26.232 12.836-.02.004-.041.004-.062.004zM62.652 21.741a1.37 1.37 0 0 0-.023.275c0 7.149.055 14.419.108 21.451l.017 2.225c.043 5.837 1.079 10.676 3.26 15.231 2.154 4.499 5.375 8.86 9.574 12.963 7.852 7.588 16.235 11.716 24.915 12.267 8.672-.551 17.057-4.681 24.921-12.276 8.074-7.797 12.636-17.178 12.843-26.413.115-5.13.103-10.363.09-15.423-.008-2.815-.015-5.63-.001-8.441l.01-1.863c-8.088.976-15.863 5.062-23.129 12.159-7.477 7.22-11.757 15.206-12.728 23.74-.12 1.021-.982 1.789-2.006 1.789s-1.886-.768-2.006-1.785c-.971-8.539-5.25-16.524-12.721-23.737-4.703-4.542-9.357-7.741-14.228-9.782a33.786 33.786 0 0 0-7.508-2.183l-.415-.074c-.291-.055-.758-.141-.973-.123z" fill="#CA8263" data-color="1"></path>
        <path d="M139.371 180.153a.838.838 0 0 1-.086-.004c-8.953-.768-17.515-5.085-25.447-12.832-7.811-7.544-12.292-15.938-13.316-24.945-1.063 9.008-5.544 17.401-13.356 24.946-4.886 4.717-9.742 8.05-14.845 10.188a35.727 35.727 0 0 1-7.954 2.312l-.378.067c-.878.164-1.873.347-2.64-.291-.477-.396-.719-1.013-.719-1.83 0-7.155.055-14.43.108-21.465l.017-2.226c.046-6.142 1.144-11.25 3.456-16.078 2.255-4.711 5.613-9.264 9.98-13.53 8.225-7.949 17.05-12.267 26.234-12.835.026-.001.052-.003.078-.002.028-.001.052.001.078.002 9.177.568 18.002 4.887 26.232 12.835 8.456 8.167 13.234 18.042 13.454 27.808.115 5.155.103 10.4.09 15.473-.008 2.811-.015 5.62-.001 8.427l.016 2.977a.999.999 0 0 1-1.001 1.003zm-38.869-39.796c1.024 0 1.886.768 2.006 1.784.971 8.538 5.251 16.524 12.723 23.74 7.27 7.101 15.046 11.187 23.134 12.162l-.01-1.862c-.014-2.812-.007-5.626.001-8.441.013-5.061.025-10.293-.09-15.423-.207-9.235-4.769-18.616-12.843-26.413-7.864-7.596-16.249-11.726-24.921-12.275-8.679.551-17.062 4.679-24.918 12.27-4.195 4.1-7.416 8.461-9.57 12.96-2.181 4.554-3.216 9.393-3.26 15.23l-.017 2.226c-.053 7.03-.108 14.301-.108 21.449 0 .135.012.223.023.276.215.021.682-.066.972-.121l.416-.074a33.701 33.701 0 0 0 7.507-2.183c4.871-2.041 9.525-5.241 14.229-9.783 7.47-7.213 11.75-15.198 12.72-23.733a2.022 2.022 0 0 1 2.006-1.789z" fill="#CA8263" data-color="1"></path>
        <path d="M21.626 139.761c-.817 0-1.433-.242-1.83-.72-.638-.767-.453-1.763-.291-2.642l.067-.376a35.81 35.81 0 0 1 2.311-7.955c2.139-5.104 5.472-9.96 10.188-14.844 7.544-7.813 15.937-12.294 24.946-13.318-9.009-1.063-17.403-5.545-24.949-13.359-7.744-7.927-12.061-16.489-12.829-25.443a1.003 1.003 0 0 1 .996-1.086h.005l2.977.015c2.81.013 5.625.007 8.441 0 5.066-.012 10.309-.026 15.458.09 9.765.219 19.641 4.997 27.807 13.453 7.948 8.23 12.267 17.057 12.836 26.233l.002.078c0 .025 0 .051-.002.078-.569 9.185-4.886 18.009-12.831 26.23-4.272 4.372-8.825 7.729-13.534 9.984-4.828 2.311-9.938 3.409-16.079 3.456l-2.492.019c-6.946.053-14.129.107-21.197.107zm-.275-2.023c.053.011.141.022.275.022 7.06 0 14.24-.054 21.183-.106l2.492-.019c5.837-.044 10.677-1.08 15.231-3.261 4.497-2.152 8.858-5.374 12.963-9.574 7.588-7.851 11.716-16.234 12.267-24.914-.551-8.672-4.681-17.057-12.276-24.921-7.798-8.075-17.178-12.636-26.413-12.843-5.125-.115-10.353-.102-15.409-.089-2.82.008-5.639.015-8.456 0l-1.863-.009c.976 8.088 5.062 15.864 12.159 23.129 7.219 7.476 15.206 11.756 23.74 12.727 1.022.121 1.789.984 1.789 2.007s-.767 1.885-1.784 2.006c-8.54.971-16.525 5.25-23.738 12.72-4.542 4.703-7.741 9.357-9.782 14.229a33.786 33.786 0 0 0-2.183 7.508l-.074.415c-.054.291-.139.756-.121.973z" fill="#CA8263" data-color="1"></path>
        <path d="M179.373 139.761c-7.066 0-14.25-.054-21.197-.106l-2.493-.019c-6.142-.047-11.251-1.146-16.078-3.456-4.71-2.255-9.262-5.612-13.53-9.98-7.949-8.225-12.267-17.05-12.835-26.234-.002-.026-.002-.052-.002-.078 0-.026 0-.052.002-.078.568-9.177 4.887-18.002 12.835-26.233 8.167-8.456 18.043-13.234 27.808-13.453 5.151-.117 10.392-.103 15.458-.09 2.814.007 5.63.014 8.441 0l2.977-.015h.005a1 1 0 0 1 .996 1.086c-.768 8.954-5.086 17.516-12.832 25.447-7.543 7.811-15.938 12.292-24.945 13.316 9.009 1.063 17.401 5.543 24.946 13.357 4.717 4.885 8.05 9.741 10.188 14.844a35.743 35.743 0 0 1 2.312 7.954l.067.378c.163.879.347 1.874-.291 2.641-.399.477-1.015.719-1.832.719zm-64.135-39.874c.551 8.679 4.679 17.063 12.27 24.917 4.101 4.196 8.463 7.418 12.96 9.57 4.553 2.181 9.393 3.217 15.23 3.261l2.493.019c6.943.053 14.123.106 21.182.106.135 0 .223-.012.276-.023.019-.217-.067-.681-.121-.973l-.074-.415a33.816 33.816 0 0 0-2.183-7.508c-2.041-4.87-5.241-9.524-9.783-14.229-7.213-7.47-15.198-11.749-23.733-12.72-1.021-.121-1.788-.983-1.788-2.006s.767-1.886 1.783-2.006c8.54-.971 16.525-5.251 23.741-12.723 7.101-7.269 11.187-15.045 12.162-23.133l-1.862.009c-2.814.014-5.635.007-8.456 0-5.055-.012-10.282-.026-15.408.089-9.234.208-18.615 4.769-26.413 12.843-7.596 7.865-11.726 16.25-12.276 24.922z" fill="#CA8263" data-color="1"></path>
    </g>
</svg>
